<svg width="113" height="24" viewBox="0 0 113 24" fill="none" xmlns="http://www.w3.org/2000/svg">
<path d="M15 21V13C15 12.7348 14.8946 12.4804 14.7071 12.2929C14.5196 12.1054 14.2652 12 14 12H10C9.73478 12 9.48043 12.1054 9.29289 12.2929C9.10536 12.4804 9 12.7348 9 13V21M3 10C2.99993 9.70907 3.06333 9.42162 3.18579 9.15771C3.30824 8.89381 3.4868 8.65979 3.709 8.472L10.709 2.473C11.07 2.16791 11.5274 2.00052 12 2.00052C12.4726 2.00052 12.93 2.16791 13.291 2.473L20.291 8.472C20.5132 8.65979 20.6918 8.89381 20.8142 9.15771C20.9367 9.42162 21.0001 9.70907 21 10V19C21 19.5304 20.7893 20.0391 20.4142 20.4142C20.0391 20.7893 19.5304 21 19 21H5C4.46957 21 3.96086 20.7893 3.58579 20.4142C3.21071 20.0391 3 19.5304 3 19V10Z" stroke="white" stroke-width="2" stroke-linecap="round" stroke-linejoin="round"/>
<path d="M35.7926 4.45455V19H33.598V4.45455H35.7926ZM38.8182 19V8.09091H40.8565V9.86648H40.9915C41.2188 9.26515 41.5904 8.7964 42.1065 8.46023C42.6226 8.11932 43.2405 7.94886 43.9602 7.94886C44.6894 7.94886 45.3002 8.11932 45.7926 8.46023C46.2898 8.80114 46.6567 9.26989 46.8935 9.86648H47.0071C47.2675 9.28409 47.6818 8.82008 48.25 8.47443C48.8182 8.12405 49.4953 7.94886 50.2812 7.94886C51.2708 7.94886 52.0781 8.259 52.7031 8.87926C53.3329 9.49953 53.6477 10.4347 53.6477 11.6847V19H51.5241V11.8835C51.5241 11.1449 51.3229 10.6098 50.9205 10.2784C50.518 9.94697 50.0374 9.78125 49.4787 9.78125C48.7874 9.78125 48.25 9.99432 47.8665 10.4205C47.483 10.8419 47.2912 11.384 47.2912 12.0469V19H45.1747V11.7486C45.1747 11.1567 44.9901 10.6809 44.6207 10.321C44.2514 9.96117 43.7708 9.78125 43.179 9.78125C42.7765 9.78125 42.4048 9.88778 42.0639 10.1009C41.7277 10.3092 41.4555 10.6004 41.2472 10.9744C41.0436 11.3485 40.9418 11.7817 40.9418 12.2741V19H38.8182ZM61.0891 19.2202C60.0664 19.2202 59.1739 18.9858 58.4116 18.517C57.6493 18.0483 57.0574 17.3925 56.636 16.5497C56.2146 15.7069 56.0039 14.7221 56.0039 13.5952C56.0039 12.4635 56.2146 11.474 56.636 10.6264C57.0574 9.77888 57.6493 9.12074 58.4116 8.65199C59.1739 8.18324 60.0664 7.94886 61.0891 7.94886C62.1119 7.94886 63.0044 8.18324 63.7667 8.65199C64.529 9.12074 65.1209 9.77888 65.5423 10.6264C65.9637 11.474 66.1744 12.4635 66.1744 13.5952C66.1744 14.7221 65.9637 15.7069 65.5423 16.5497C65.1209 17.3925 64.529 18.0483 63.7667 18.517C63.0044 18.9858 62.1119 19.2202 61.0891 19.2202ZM61.0962 17.4375C61.7591 17.4375 62.3084 17.2623 62.744 16.9119C63.1796 16.5616 63.5015 16.0952 63.7099 15.5128C63.9229 14.9304 64.0295 14.2888 64.0295 13.5881C64.0295 12.892 63.9229 12.2528 63.7099 11.6705C63.5015 11.0833 63.1796 10.6122 62.744 10.2571C62.3084 9.90199 61.7591 9.72443 61.0962 9.72443C60.4286 9.72443 59.8746 9.90199 59.4343 10.2571C58.9987 10.6122 58.6744 11.0833 58.4613 11.6705C58.253 12.2528 58.1488 12.892 58.1488 13.5881C58.1488 14.2888 58.253 14.9304 58.4613 15.5128C58.6744 16.0952 58.9987 16.5616 59.4343 16.9119C59.8746 17.2623 60.4286 17.4375 61.0962 17.4375ZM67.1971 6.34375V4.45455H78.4542V6.34375H73.9158V19H71.7283V6.34375H67.1971ZM83.891 19.2202C82.8162 19.2202 81.8905 18.9905 81.114 18.5312C80.3422 18.0672 79.7456 17.4162 79.3242 16.5781C78.9076 15.7353 78.6992 14.7481 78.6992 13.6165C78.6992 12.4991 78.9076 11.5142 79.3242 10.6619C79.7456 9.80966 80.3327 9.14441 81.0856 8.66619C81.8432 8.18797 82.7286 7.94886 83.7418 7.94886C84.3574 7.94886 84.954 8.05066 85.5316 8.25426C86.1093 8.45786 86.6277 8.77746 87.087 9.21307C87.5463 9.64867 87.9085 10.2145 88.1737 10.9105C88.4388 11.6018 88.5714 12.4422 88.5714 13.4318V14.1847H79.8995V12.5938H86.4904C86.4904 12.035 86.3768 11.5402 86.1495 11.1094C85.9222 10.6738 85.6026 10.3305 85.1907 10.0795C84.7835 9.8286 84.3053 9.70312 83.756 9.70312C83.1594 9.70312 82.6386 9.84991 82.1935 10.1435C81.7532 10.4323 81.4123 10.8111 81.1708 11.2798C80.9341 11.7438 80.8157 12.2481 80.8157 12.7926V14.0355C80.8157 14.7647 80.9435 15.3849 81.1992 15.8963C81.4596 16.4077 81.8219 16.7983 82.2859 17.0682C82.7499 17.3333 83.292 17.4659 83.9123 17.4659C84.3147 17.4659 84.6817 17.4091 85.0131 17.2955C85.3446 17.1771 85.631 17.0019 85.8725 16.7699C86.114 16.5379 86.2987 16.2514 86.4265 15.9105L88.4364 16.2727C88.2754 16.8646 87.9866 17.383 87.57 17.8281C87.158 18.2685 86.6396 18.6117 86.0146 18.858C85.3943 19.0994 84.6864 19.2202 83.891 19.2202ZM95.5227 19.2202C94.4669 19.2202 93.5578 18.9811 92.7955 18.5028C92.0379 18.0199 91.4555 17.3546 91.0483 16.5071C90.6411 15.6596 90.4375 14.6889 90.4375 13.5952C90.4375 12.4872 90.6458 11.5095 91.0625 10.6619C91.4792 9.80966 92.0663 9.14441 92.8239 8.66619C93.5814 8.18797 94.474 7.94886 95.5014 7.94886C96.33 7.94886 97.0687 8.10275 97.7173 8.41051C98.366 8.71354 98.8892 9.13968 99.2869 9.68892C99.6894 10.2382 99.9285 10.8797 100.004 11.6136H97.9375C97.8239 11.1023 97.5634 10.6619 97.1562 10.2926C96.7538 9.9233 96.214 9.73864 95.5369 9.73864C94.9451 9.73864 94.4266 9.89489 93.9815 10.2074C93.5412 10.5152 93.1979 10.9555 92.9517 11.5284C92.7055 12.0966 92.5824 12.7689 92.5824 13.5455C92.5824 14.3409 92.7031 15.0275 92.9446 15.6051C93.1861 16.1828 93.527 16.6302 93.9673 16.9474C94.4124 17.2647 94.9356 17.4233 95.5369 17.4233C95.9394 17.4233 96.304 17.3499 96.6307 17.2031C96.9621 17.0516 97.2391 16.8362 97.4616 16.5568C97.6889 16.2775 97.8475 15.9413 97.9375 15.5483H100.004C99.9285 16.2538 99.6989 16.8835 99.3153 17.4375C98.9318 17.9915 98.4181 18.4271 97.7741 18.7443C97.1349 19.0616 96.3845 19.2202 95.5227 19.2202ZM104.399 12.5227V19H102.275V4.45455H104.37V9.86648H104.505C104.761 9.27936 105.152 8.81297 105.677 8.46733C106.203 8.12169 106.889 7.94886 107.737 7.94886C108.485 7.94886 109.138 8.10275 109.697 8.41051C110.261 8.71828 110.696 9.17756 111.004 9.78835C111.316 10.3944 111.473 11.152 111.473 12.0611V19H109.349V12.3168C109.349 11.5166 109.143 10.8963 108.731 10.456C108.319 10.0109 107.746 9.78835 107.012 9.78835C106.511 9.78835 106.061 9.89489 105.663 10.108C105.27 10.321 104.96 10.6335 104.733 11.0455C104.51 11.4527 104.399 11.9451 104.399 12.5227Z" fill="white"/>
</svg>
